<?xml version="1.0" standalone="no"?>
<!DOCTYPE svg PUBLIC "-//W3C//DTD SVG 20010904//EN"
 "http://www.w3.org/TR/2001/REC-SVG-20010904/DTD/svg10.dtd">
<svg version="1.0" xmlns="http://www.w3.org/2000/svg"
 width="512.000000pt" height="512.000000pt" viewBox="0 0 512.000000 512.000000"
 preserveAspectRatio="xMidYMid meet">
<metadata>
Created by potrace 1.14, written by Peter Selinger 2001-2017
</metadata>
<g transform="translate(0.000000,512.000000) scale(0.100000,-0.100000)"
fill="#000000" stroke="none">
<path d="M1179 5116 c-2 -2 -42 -6 -89 -10 -47 -3 -96 -8 -110 -11 -14 -3 -50
-9 -81 -15 -275 -50 -551 -237 -704 -476 -19 -30 -35 -57 -35 -60 0 -3 -8 -18
-18 -32 -10 -15 -24 -43 -31 -62 -7 -19 -17 -44 -22 -55 -31 -74 -65 -232 -77
-360 -9 -104 -9 -2822 0 -2940 4 -49 10 -101 13 -115 2 -13 7 -42 11 -65 10
-69 73 -247 116 -325 58 -107 109 -174 198 -261 173 -167 363 -260 625 -304
104 -17 320 -20 1575 -20 1229 0 1503 3 1585 19 191 36 247 53 375 119 119 61
185 109 281 208 80 82 146 174 197 277 36 72 87 227 97 292 4 24 8 47 10 50
15 25 20 400 20 1585 0 1457 -2 1525 -40 1693 -99 432 -437 754 -875 836 -47
8 -103 18 -125 22 -41 7 -2889 17 -2896 10z"/>
</g>
</svg>
